<?xml version="1.0" encoding="UTF-8"?>
<svg id="Signature" xmlns="http://www.w3.org/2000/svg" version="1.1" viewBox="0 0 141.98 59.58">
  <!-- Generator: Adobe Illustrator 30.4.0, SVG Export Plug-In . SVG Version: 2.1.4 Build 226)  -->
  <path d="M25.08,29.44c.8-.52,1.61-1,2.44-1.45.82-.45,1.71-.79,2.65-1.02,3.11-.89,6.21-1.67,9.32-2.33,3.11-.66,6.28-1.1,9.53-1.34.52-.05,1.03-.04,1.55.04.52.07,1.01.46,1.48,1.16-.52.52-1.07.86-1.66,1.02-.59.17-1.19.27-1.8.32-.61.05-1.22.09-1.83.14-.61.05-1.18.19-1.69.42-3.81,4.99-6.94,10.25-9.39,15.78-2.45,5.53-4.45,11.33-6,17.4l-1.83-.56c-.19-1.18-.15-2.29.11-3.35.26-1.06.58-2.11.95-3.14,1.36-3.95,2.96-7.75,4.8-11.4,1.83-3.65,3.74-7.28,5.72-10.91l.78-1.41c-1.04.85-2.12,1.8-3.25,2.86-1.13,1.06-2.24,2.08-3.32,3.07-1.08.99-2.09,1.92-3.04,2.79-.94.87-1.72,1.57-2.33,2.08-3.11,2.63-6.34,5.08-9.71,7.34-3.37,2.26-6.88,4.28-10.55,6.07-1.08.52-2.09.78-3.04.78s-1.76-.21-2.47-.64c-.71-.42-1.28-1.05-1.73-1.87-.45-.82-.7-1.85-.74-3.07-.09-1.46.07-2.85.49-4.16.42-1.32.92-2.61,1.48-3.88,1.5-3.43,3.36-6.59,5.58-9.46,2.21-2.87,4.56-5.67,7.06-8.4,2.96-3.25,6.11-6.21,9.42-8.89,3.32-2.68,6.95-4.99,10.91-6.92.38-.19,1.09-.49,2.15-.92,1.06-.42,2.18-.78,3.35-1.06,1.18-.28,2.25-.39,3.21-.32.96.07,1.56.53,1.8,1.38.19.66.11,1.41-.25,2.26-.35.85-.82,1.75-1.41,2.72-.59.96-1.25,1.92-1.98,2.86-.73.94-1.38,1.79-1.94,2.54-.8,1.08-1.62,2.14-2.47,3.18-.85,1.04-1.74,2.07-2.68,3.11-.42.52-.93.93-1.52,1.24-.59.31-1.07.47-1.45.49-.38.02-.55-.15-.53-.53.02-.38.43-1.03,1.24-1.98l6.78-7.48c.94-1.08,1.81-2.21,2.61-3.39.8-1.18,1.34-2.52,1.62-4.02-1.04-.09-2.17.01-3.39.32-1.22.31-2.45.75-3.67,1.34-1.22.59-2.42,1.26-3.6,2.01-1.18.75-2.24,1.51-3.18,2.26-2.45,1.98-4.96,4.22-7.55,6.74-2.59,2.52-5.01,5.21-7.27,8.08-2.26,2.87-4.26,5.89-6,9.07-1.74,3.18-2.96,6.46-3.67,9.85-.24,1.08-.02,1.78.63,2.08.66.31,1.47.41,2.44.32.96-.09,1.96-.33,3-.71,1.03-.38,1.83-.73,2.4-1.06,3.06-1.65,6.04-3.4,8.93-5.26,2.89-1.86,5.61-3.99,8.15-6.39.28-.28.76-.71,1.45-1.27.68-.56,1.46-1.2,2.33-1.91.87-.71,1.75-1.42,2.65-2.15.89-.73,1.69-1.35,2.4-1.87-1.37.14-2.69.41-3.99.81-1.29.4-2.55.81-3.78,1.24-1.37.42-2.68.94-3.95,1.55-1.27.61-2.54,1.2-3.81,1.76-.38-1.03-.49-1.83-.35-2.4.14-.56.61-1.08,1.41-1.55Z"/>
  <path d="M70.12,31.91c-.14.52-.22.93-.25,1.24-.02.31-.13.53-.32.67-1.22,1.04-2.44,2.07-3.64,3.11-1.2,1.04-2.44,2.02-3.71,2.96-.52.38-1.11.64-1.76.78-.66.14-1.32-.02-1.98-.49-1.32-1.08-1.83-2.47-1.55-4.16.19-.99.4-1.96.64-2.93.23-.96.47-1.92.71-2.86.05-.19.07-.52.07-.99-.8-.28-1.67-.52-2.61-.71-.94-.19-1.62-.02-2.05.49-.61.66-1.24,1.19-1.87,1.59-.63.4-1.21.91-1.73,1.52-.75-.14-1.17-.2-1.24-.18-.07.02.08-.15.46-.53,1.22-1.27,2.38-2.72,3.46-4.34,1.08-1.62,2.12-3.33,3.11-5.12.19-.28.47-.52.85-.71.38-.19.71-.38.99-.56.61.33,1.08.61,1.41.85.33.24.53.53.6.88.07.35.02.79-.14,1.31-.17.52-.44,1.2-.81,2.05.09.19.19.31.28.35.89.33,1.59.64,2.08.92.49.28.85.64,1.06,1.06s.28.92.21,1.48c-.07.56-.25,1.29-.53,2.19-.24.8-.47,1.62-.71,2.47-.24.85-.47,1.76-.71,2.75.99-.14,1.88-.4,2.68-.78.8-.38,1.58-.81,2.33-1.31.75-.49,1.51-1.01,2.26-1.55.75-.54,1.55-1.02,2.4-1.45Z"/>
  <path d="M77.04,23.93c-.47.8-.95,1.61-1.45,2.44-.49.82-1,1.64-1.52,2.44-.38.66-.67,1.35-.88,2.08-.21.73-.27,1.56-.18,2.51.75-.05,1.6-.28,2.54-.71.94-.42,1.89-.91,2.86-1.45.96-.54,1.93-1.08,2.89-1.62.96-.54,1.85-.95,2.65-1.24-.24.38-.42.67-.56.88-.14.21-.28.39-.42.53-.47.33-1.06.74-1.76,1.24s-1.45,1-2.22,1.52c-.78.52-1.53,1.01-2.26,1.48-.73.47-1.33.87-1.8,1.2-1.51.94-2.82,1.09-3.95.46-1.13-.64-1.76-1.82-1.91-3.56-.28-2.59.33-4.92,1.84-6.99.52-.8,1.09-1.55,1.73-2.26.63-.71,1.23-1.41,1.8-2.12,2.96-.14,3.83.92,2.61,3.18ZM82.26,12.21c.33,1.55.13,2.67-.6,3.35-.73.68-1.82.79-3.28.32-.24-1.36-.01-2.38.67-3.04.68-.66,1.75-.87,3.21-.64Z"/>
  <path d="M88.19,29.79c-.28.05-.55.12-.81.21-.26.09-.58.19-.95.28-.38.71-.68,1.41-.92,2.12-.24.71-.24,1.39,0,2.05.42.47.85.79,1.27.95.42.17.83.24,1.24.21.4-.02.79-.11,1.17-.25.38-.14.71-.31.99-.49,1.55-.94,3.05-1.88,4.48-2.82,1.43-.94,2.98-1.88,4.62-2.82-.09.14-.11.31-.04.49.07.19.06.33-.04.42-1.41,1.13-2.84,2.26-4.27,3.39-1.44,1.13-2.86,2.24-4.27,3.32-.28.19-.49.31-.64.35-.94.42-1.87.72-2.79.88-.92.17-1.85-.13-2.79-.88-.94-.75-1.56-1.63-1.87-2.65-.31-1.01-.29-2.06.04-3.14.42-1.41.98-2.8,1.66-4.16.68-1.36,1.51-2.66,2.47-3.88.96-1.22,2.06-2.32,3.28-3.28,1.22-.96,2.59-1.73,4.09-2.29,1.55.38,2.49.93,2.82,1.66.33.73.24,1.82-.28,3.28-.56,1.55-1.55,2.99-2.96,4.31-1.41,1.32-3.25,2.24-5.51,2.75ZM94.12,22.24c-.85.75-1.68,1.48-2.51,2.19-.82.71-1.66,1.41-2.51,2.12,1.79-.52,3.06-1.13,3.81-1.83.75-.71,1.15-1.53,1.2-2.47Z"/>
  <path d="M126.94,9.46c1.27,0,2.54-.05,3.81-.14,1.27-.09,2.53-.13,3.78-.11,1.25.02,2.49.14,3.74.35,1.25.21,2.48.6,3.71,1.16-5.32,0-10.61.17-15.88.49-5.27.33-10.57.96-15.88,1.91-1.98,3.58-3.76,7.22-5.36,10.94-1.6,3.72-2.8,7.6-3.6,11.65-.19.99-.32,2-.39,3.04s-.13,2.07-.18,3.11c0,.23.01.52.04.85.02.33.05.66.07.99.02.33.07.6.14.81.07.21.18.27.32.18,1.27-.33,2.41-.82,3.42-1.48,1.01-.66,1.95-1.38,2.82-2.15.87-.78,1.74-1.57,2.61-2.36.87-.8,1.8-1.53,2.79-2.19-.24.38-.45.75-.63,1.13-.19.38-.4.71-.64.99-.99,1.13-1.97,2.25-2.93,3.35-.96,1.1-1.96,2.2-3,3.28-.75.8-1.58,1.42-2.47,1.87-.89.45-1.88.48-2.96.11-1.13-.38-1.96-1.02-2.51-1.94-.54-.92-.88-1.94-1.02-3.07-.14-1.41-.07-2.8.21-4.16.66-3.67,1.62-7.22,2.89-10.66,1.27-3.43,2.73-6.85,4.38-10.24.14-.33.29-.66.46-.99.17-.33.32-.66.46-.99.05-.09.09-.22.14-.39.05-.16.16-.48.35-.95-2.26.61-4.41,1.2-6.46,1.76-2.05.56-4.06,1.11-6.04,1.62-.66-.33-1.22-.71-1.69-1.13-.47-.42-.61-1.18-.42-2.26.38-.14.78-.33,1.2-.56.42-.23.89-.4,1.41-.49,1.93-.38,3.84-.71,5.72-.99,1.88-.28,3.79-.56,5.72-.85.38-.09.76-.15,1.16-.18.4-.02.81-.08,1.24-.18,1.04-1.79,2.05-3.55,3.04-5.29.99-1.74,1.98-3.51,2.96-5.29h1.91c.52.56.75,1.12.71,1.66-.05.54-.24,1.07-.56,1.59-.57,1.04-1.13,2.05-1.69,3.04-.56.99-1.13,1.98-1.69,2.96-.09.09-.15.21-.18.35-.02.14-.08.33-.18.56,2.59-.14,5.13-.28,7.62-.42,2.49-.14,5.01-.23,7.55-.28Z"/>
  <path d="M127.22,34.38c-.14.56-.22,1.13-.25,1.69-.02.56.06.89.25.99,1.13-.19,2.16-.52,3.11-.99.94-.47,1.84-1,2.68-1.59.85-.59,1.68-1.19,2.51-1.8.82-.61,1.68-1.15,2.58-1.62-1.22,1.74-2.58,3.29-4.06,4.66-1.48,1.37-3.17,2.49-5.05,3.39-1.18.52-2.19.58-3.04.18-.85-.4-1.41-1.23-1.69-2.51-.24-.94-.33-1.91-.28-2.89.05-.99.09-1.95.14-2.89,0-.38.05-.74.14-1.09.09-.35.16-.72.21-1.09-1.74,1.88-3.47,3.73-5.19,5.54-1.72,1.81-3.61,3.42-5.68,4.84-1.37-.66-2.23-1.36-2.61-2.12-.38-.75-.38-1.74,0-2.96.66-2.21,1.65-4.19,2.96-5.93,1.32-1.74,2.73-3.43,4.24-5.08.47-.47,1.02-1.01,1.66-1.62.64-.61,1.32-1.22,2.05-1.84.73-.61,1.46-1.16,2.19-1.66s1.42-.86,2.08-1.09c.56-.23,1.15-.38,1.76-.42.61-.05,1.18.17,1.69.64.52.47.76.98.74,1.52-.02.54-.15,1.09-.39,1.66-.05.09-.08.21-.11.35-.02.14-.08.31-.18.49.47.61.68,1.26.63,1.94-.05.68-.19,1.4-.42,2.15-.52,1.51-.99,3.04-1.41,4.59-.42,1.55-.85,3.08-1.27,4.59ZM124.26,25.41c.52-.56,1-1.15,1.45-1.76.45-.61.93-1.25,1.45-1.91.09,0,.14-.02.14-.07.05-.05.07-.08.07-.11s.02-.06.07-.11l-.14.14-.14.14c-.66.47-1.31.93-1.94,1.38-.64.45-1.24.93-1.8,1.45-1.22,1.18-2.42,2.38-3.6,3.6-1.18,1.22-2.12,2.64-2.82,4.24l-.07.07-.07.14.07-.07s.01-.07.04-.07c.02,0,.04-.02.04-.07.23-.09.47-.2.71-.32s.42-.25.56-.39c1.03-1.08,2.05-2.13,3.04-3.14.99-1.01,1.98-2.06,2.96-3.14ZM116.85,32.61l.07-.07s.01-.07.04-.07c.02,0,.04-.02.04-.07l-.07.07-.07.14ZM127.29,21.67s.07-.08.07-.11.02-.06.07-.11l-.14.14-.14.14c.09,0,.14-.02.14-.07Z"/>
</svg>